<?xml version="1.0" encoding="UTF-8" standalone="no"?><!DOCTYPE svg PUBLIC "-//W3C//DTD SVG 1.1//EN" "http://www.w3.org/Graphics/SVG/1.1/DTD/svg11.dtd"><svg width="100%" height="100%" viewBox="0 0 46 46" version="1.1" xmlns="http://www.w3.org/2000/svg" xmlns:xlink="http://www.w3.org/1999/xlink" xml:space="preserve" xmlns:serif="http://www.serif.com/" style="fill-rule:evenodd;clip-rule:evenodd;stroke-linejoin:round;stroke-miterlimit:2;"><rect id="Artboard2" x="0" y="0" width="45.011" height="45.011" style="fill:none;"/><clipPath id="_clip1"><rect x="0" y="0" width="45.011" height="45.011"/></clipPath><g clip-path="url(#_clip1)"><path d="M22.506,-0c12.421,-0 22.505,10.084 22.505,22.506c0,12.421 -10.084,22.505 -22.505,22.505c-12.422,0 -22.506,-10.084 -22.506,-22.505c0,-12.422 10.084,-22.506 22.506,-22.506Zm1.151,41.209c0.072,0.047 0.16,0.064 0.244,0.046c0.085,-0.018 0.158,-0.07 0.204,-0.143c1.619,-2.577 13.996,-22.282 15.578,-24.8c0.093,-0.148 0.051,-0.342 -0.094,-0.438c-2.09,-1.383 -16.097,-10.656 -18.235,-12.072c-0.072,-0.047 -0.16,-0.064 -0.244,-0.046c-0.084,0.019 -0.158,0.07 -0.203,0.143c-1.619,2.577 -13.997,22.282 -15.579,24.801c-0.092,0.147 -0.05,0.341 0.094,0.437c2.09,1.383 16.097,10.657 18.235,12.072Zm-0.103,-1.283c0.014,0.01 0.032,0.013 0.048,0.009c0.017,-0.003 0.032,-0.014 0.041,-0.028c0.124,-0.197 0.542,-0.863 0.663,-1.056c0.019,-0.029 0.01,-0.068 -0.019,-0.087c-0.188,-0.125 -0.836,-0.553 -1.028,-0.681c-0.015,-0.009 -0.032,-0.013 -0.049,-0.009c-0.017,0.004 -0.031,0.014 -0.04,0.028c-0.124,0.197 -0.543,0.863 -0.664,1.056c-0.018,0.029 -0.01,0.068 0.019,0.087c0.189,0.125 0.836,0.554 1.029,0.681Zm-1.995,-1.32l3.872,-6.164l-12.949,-8.573l-3.872,6.164l12.949,8.573Zm3.08,-0.408c0.015,0.01 0.032,0.013 0.049,0.009c0.017,-0.003 0.031,-0.014 0.04,-0.028c0.124,-0.197 0.542,-0.863 0.664,-1.056c0.018,-0.029 0.01,-0.068 -0.019,-0.087c-0.189,-0.125 -0.836,-0.553 -1.029,-0.681c-0.014,-0.009 -0.032,-0.013 -0.048,-0.009c-0.017,0.004 -0.032,0.014 -0.041,0.028c-0.124,0.197 -0.542,0.863 -0.663,1.056c-0.019,0.029 -0.01,0.068 0.019,0.087c0.188,0.125 0.836,0.554 1.028,0.681Zm1.086,-1.728c0.014,0.01 0.031,0.013 0.048,0.009c0.017,-0.003 0.032,-0.014 0.041,-0.028c0.123,-0.197 0.542,-0.863 0.663,-1.056c0.018,-0.029 0.01,-0.068 -0.019,-0.087c-0.188,-0.125 -0.836,-0.553 -1.028,-0.681c-0.015,-0.009 -0.032,-0.013 -0.049,-0.009c-0.017,0.004 -0.031,0.014 -0.041,0.028c-0.123,0.197 -0.542,0.863 -0.663,1.056c-0.018,0.029 -0.01,0.068 0.019,0.087c0.189,0.125 0.836,0.554 1.029,0.681Zm1.085,-1.728c0.014,0.01 0.032,0.013 0.049,0.009c0.016,-0.003 0.031,-0.014 0.04,-0.028c0.124,-0.197 0.542,-0.863 0.663,-1.056c0.019,-0.029 0.01,-0.068 -0.018,-0.087c-0.189,-0.125 -0.836,-0.553 -1.029,-0.681c-0.014,-0.009 -0.032,-0.013 -0.049,-0.009c-0.016,0.004 -0.031,0.014 -0.04,0.028c-0.124,0.197 -0.542,0.863 -0.663,1.056c-0.019,0.029 -0.01,0.068 0.018,0.087c0.189,0.125 0.836,0.554 1.029,0.681Zm1.085,-1.728c0.015,0.01 0.032,0.013 0.049,0.009c0.017,-0.003 0.031,-0.014 0.041,-0.028c0.123,-0.197 0.542,-0.863 0.663,-1.056c0.018,-0.029 0.01,-0.068 -0.019,-0.087c-0.188,-0.125 -0.836,-0.553 -1.029,-0.681c-0.014,-0.009 -0.031,-0.013 -0.048,-0.009c-0.017,0.004 -0.032,0.014 -0.041,0.028c-0.123,0.197 -0.542,0.863 -0.663,1.056c-0.018,0.03 -0.01,0.068 0.019,0.087c0.188,0.125 0.836,0.554 1.028,0.681Zm-1.82,-1.597l5.915,-9.417l-12.949,-8.573l-5.915,9.417l12.949,8.573Zm2.906,-0.131c0.014,0.01 0.032,0.013 0.049,0.009c0.016,-0.003 0.031,-0.013 0.04,-0.028c0.124,-0.197 0.542,-0.863 0.663,-1.056c0.019,-0.029 0.01,-0.068 -0.019,-0.087c-0.188,-0.125 -0.836,-0.553 -1.028,-0.681c-0.014,-0.009 -0.032,-0.013 -0.049,-0.009c-0.017,0.004 -0.031,0.014 -0.04,0.028c-0.124,0.197 -0.542,0.863 -0.663,1.056c-0.019,0.03 -0.011,0.068 0.018,0.087c0.189,0.125 0.836,0.554 1.029,0.681Zm1.085,-1.728c0.015,0.01 0.032,0.013 0.049,0.009c0.017,-0.003 0.031,-0.013 0.04,-0.028c0.124,-0.197 0.543,-0.863 0.664,-1.056c0.018,-0.029 0.01,-0.068 -0.019,-0.087c-0.189,-0.125 -0.836,-0.553 -1.029,-0.681c-0.014,-0.009 -0.032,-0.013 -0.048,-0.009c-0.017,0.004 -0.032,0.014 -0.041,0.028c-0.124,0.197 -0.542,0.863 -0.663,1.056c-0.018,0.03 -0.01,0.068 0.019,0.087c0.188,0.125 0.836,0.554 1.028,0.681Zm-22.433,-0.172c0.015,0.01 0.032,0.013 0.049,0.009c0.017,-0.003 0.031,-0.013 0.041,-0.028c0.123,-0.197 0.542,-0.863 0.663,-1.056c0.018,-0.029 0.01,-0.068 -0.019,-0.087c-0.188,-0.125 -0.836,-0.553 -1.029,-0.681c-0.014,-0.009 -0.031,-0.013 -0.048,-0.009c-0.017,0.004 -0.032,0.014 -0.041,0.029c-0.123,0.196 -0.542,0.863 -0.663,1.055c-0.018,0.03 -0.01,0.068 0.019,0.087c0.188,0.125 0.836,0.554 1.028,0.681Zm23.519,-1.556c0.014,0.01 0.032,0.013 0.048,0.009c0.017,-0.003 0.032,-0.013 0.041,-0.028c0.124,-0.197 0.542,-0.863 0.663,-1.056c0.018,-0.029 0.01,-0.068 -0.019,-0.087c-0.188,-0.125 -0.836,-0.553 -1.028,-0.681c-0.015,-0.009 -0.032,-0.013 -0.049,-0.009c-0.017,0.004 -0.031,0.014 -0.04,0.028c-0.124,0.197 -0.543,0.863 -0.664,1.056c-0.018,0.03 -0.01,0.068 0.019,0.087c0.189,0.125 0.836,0.554 1.029,0.681Zm-22.433,-0.172c0.014,0.01 0.032,0.013 0.049,0.009c0.016,-0.003 0.031,-0.013 0.04,-0.028c0.124,-0.197 0.542,-0.863 0.663,-1.056c0.019,-0.029 0.01,-0.068 -0.019,-0.087c-0.188,-0.125 -0.836,-0.553 -1.028,-0.681c-0.014,-0.009 -0.032,-0.012 -0.049,-0.009c-0.017,0.004 -0.031,0.014 -0.04,0.029c-0.124,0.196 -0.542,0.863 -0.663,1.055c-0.019,0.03 -0.011,0.068 0.018,0.087c0.189,0.125 0.836,0.554 1.029,0.681Zm23.518,-1.556c0.014,0.01 0.032,0.013 0.049,0.009c0.017,-0.003 0.031,-0.013 0.04,-0.028c0.124,-0.197 0.542,-0.863 0.664,-1.056c0.018,-0.029 0.01,-0.068 -0.019,-0.087c-0.189,-0.125 -0.836,-0.553 -1.029,-0.681c-0.014,-0.009 -0.032,-0.013 -0.048,-0.009c-0.017,0.004 -0.032,0.014 -0.041,0.028c-0.124,0.197 -0.542,0.863 -0.663,1.056c-0.019,0.03 -0.01,0.068 0.019,0.087c0.188,0.125 0.836,0.554 1.028,0.681Zm-22.433,-0.172c0.015,0.01 0.032,0.013 0.049,0.01c0.017,-0.004 0.031,-0.014 0.04,-0.029c0.124,-0.197 0.543,-0.863 0.664,-1.056c0.018,-0.029 0.01,-0.068 -0.019,-0.087c-0.189,-0.125 -0.836,-0.553 -1.029,-0.681c-0.014,-0.009 -0.032,-0.012 -0.048,-0.009c-0.017,0.004 -0.032,0.014 -0.041,0.029c-0.124,0.197 -0.542,0.863 -0.663,1.055c-0.018,0.03 -0.01,0.068 0.019,0.087c0.188,0.125 0.836,0.554 1.028,0.681Zm23.519,-1.556c0.014,0.01 0.031,0.013 0.048,0.009c0.017,-0.003 0.032,-0.013 0.041,-0.028c0.123,-0.197 0.542,-0.863 0.663,-1.056c0.018,-0.029 0.01,-0.068 -0.019,-0.087c-0.188,-0.125 -0.836,-0.553 -1.028,-0.681c-0.015,-0.009 -0.032,-0.013 -0.049,-0.009c-0.017,0.004 -0.031,0.014 -0.041,0.029c-0.123,0.196 -0.542,0.863 -0.663,1.055c-0.018,0.03 -0.01,0.068 0.019,0.087c0.188,0.125 0.836,0.554 1.029,0.681Zm-22.433,-0.172c0.014,0.01 0.032,0.013 0.048,0.01c0.017,-0.004 0.032,-0.014 0.041,-0.029c0.124,-0.197 0.542,-0.863 0.663,-1.056c0.019,-0.029 0.01,-0.068 -0.019,-0.087c-0.188,-0.124 -0.836,-0.553 -1.028,-0.681c-0.015,-0.009 -0.032,-0.012 -0.049,-0.009c-0.017,0.004 -0.031,0.014 -0.04,0.029c-0.124,0.197 -0.543,0.863 -0.664,1.055c-0.018,0.03 -0.01,0.068 0.019,0.087c0.189,0.125 0.836,0.554 1.029,0.681Zm23.527,-1.55c0.014,0.01 0.031,0.013 0.048,0.009c0.017,-0.003 0.032,-0.014 0.041,-0.028c0.124,-0.197 0.542,-0.863 0.663,-1.056c0.018,-0.029 0.01,-0.068 -0.019,-0.087c-0.188,-0.125 -0.836,-0.554 -1.028,-0.681c-0.015,-0.009 -0.032,-0.013 -0.049,-0.009c-0.017,0.003 -0.031,0.014 -0.041,0.028c-0.123,0.197 -0.542,0.863 -0.663,1.056c-0.018,0.029 -0.01,0.068 0.019,0.087c0.189,0.125 0.836,0.554 1.029,0.681Zm-22.442,-0.178c0.015,0.01 0.032,0.013 0.049,0.01c0.017,-0.004 0.031,-0.014 0.04,-0.029c0.124,-0.197 0.542,-0.863 0.664,-1.056c0.018,-0.029 0.01,-0.068 -0.019,-0.087c-0.189,-0.124 -0.836,-0.553 -1.029,-0.681c-0.014,-0.009 -0.032,-0.012 -0.048,-0.009c-0.017,0.004 -0.032,0.014 -0.041,0.029c-0.124,0.197 -0.542,0.863 -0.663,1.055c-0.019,0.03 -0.01,0.068 0.019,0.087c0.188,0.125 0.836,0.554 1.028,0.681Zm20.554,-1.332l3.872,-6.164l-12.949,-8.572l-3.872,6.164l12.949,8.572Zm2.973,-0.218c0.014,0.01 0.032,0.013 0.049,0.009c0.016,-0.003 0.031,-0.014 0.04,-0.028c0.124,-0.197 0.542,-0.863 0.663,-1.056c0.019,-0.029 0.01,-0.068 -0.018,-0.087c-0.189,-0.125 -0.836,-0.553 -1.029,-0.681c-0.014,-0.009 -0.032,-0.013 -0.049,-0.009c-0.016,0.003 -0.031,0.014 -0.04,0.028c-0.124,0.197 -0.542,0.863 -0.663,1.056c-0.019,0.029 -0.01,0.068 0.018,0.087c0.189,0.125 0.837,0.554 1.029,0.681Zm-22.441,-0.178c0.014,0.01 0.031,0.013 0.048,0.01c0.017,-0.004 0.032,-0.014 0.041,-0.029c0.123,-0.197 0.542,-0.863 0.663,-1.056c0.018,-0.029 0.01,-0.068 -0.019,-0.087c-0.188,-0.124 -0.836,-0.553 -1.028,-0.681c-0.015,-0.009 -0.032,-0.012 -0.049,-0.009c-0.017,0.004 -0.031,0.014 -0.041,0.029c-0.123,0.197 -0.542,0.863 -0.663,1.055c-0.018,0.03 -0.01,0.068 0.019,0.087c0.189,0.125 0.836,0.554 1.029,0.681Zm23.526,-1.55c0.015,0.01 0.032,0.013 0.049,0.009c0.017,-0.003 0.032,-0.014 0.041,-0.028c0.123,-0.197 0.542,-0.863 0.663,-1.056c0.018,-0.029 0.01,-0.068 -0.019,-0.087c-0.188,-0.125 -0.836,-0.553 -1.029,-0.681c-0.014,-0.009 -0.031,-0.013 -0.048,-0.009c-0.017,0.004 -0.032,0.014 -0.041,0.028c-0.123,0.197 -0.542,0.863 -0.663,1.056c-0.018,0.029 -0.01,0.068 0.019,0.087c0.188,0.125 0.836,0.554 1.028,0.681Zm-22.441,-0.178c0.014,0.01 0.032,0.013 0.049,0.01c0.016,-0.004 0.031,-0.014 0.04,-0.029c0.124,-0.197 0.542,-0.863 0.663,-1.056c0.019,-0.029 0.01,-0.068 -0.018,-0.087c-0.189,-0.124 -0.836,-0.553 -1.029,-0.681c-0.014,-0.009 -0.032,-0.012 -0.049,-0.009c-0.016,0.004 -0.031,0.014 -0.04,0.029c-0.124,0.197 -0.542,0.863 -0.663,1.055c-0.019,0.03 -0.01,0.068 0.018,0.087c0.189,0.125 0.836,0.554 1.029,0.681Zm23.527,-1.55c0.014,0.01 0.032,0.013 0.049,0.009c0.016,-0.003 0.031,-0.014 0.04,-0.028c0.124,-0.197 0.542,-0.863 0.663,-1.056c0.019,-0.029 0.01,-0.068 -0.019,-0.087c-0.188,-0.125 -0.836,-0.553 -1.028,-0.681c-0.014,-0.009 -0.032,-0.013 -0.049,-0.009c-0.017,0.004 -0.031,0.014 -0.04,0.028c-0.124,0.197 -0.542,0.863 -0.663,1.056c-0.019,0.029 -0.011,0.068 0.018,0.087c0.189,0.125 0.836,0.554 1.029,0.681Zm-22.442,-0.178c0.015,0.01 0.032,0.013 0.049,0.01c0.017,-0.004 0.031,-0.014 0.041,-0.029c0.123,-0.197 0.542,-0.863 0.663,-1.056c0.018,-0.029 0.01,-0.068 -0.019,-0.087c-0.188,-0.124 -0.836,-0.553 -1.029,-0.681c-0.014,-0.009 -0.031,-0.012 -0.048,-0.009c-0.017,0.004 -0.032,0.014 -0.041,0.029c-0.123,0.197 -0.542,0.863 -0.663,1.055c-0.018,0.03 -0.01,0.068 0.019,0.087c0.188,0.125 0.836,0.554 1.028,0.681Zm1.086,-1.728c0.014,0.01 0.032,0.013 0.049,0.01c0.016,-0.004 0.031,-0.014 0.04,-0.029c0.124,-0.197 0.542,-0.863 0.663,-1.056c0.019,-0.029 0.01,-0.067 -0.019,-0.087c-0.188,-0.124 -0.836,-0.553 -1.028,-0.681c-0.014,-0.009 -0.032,-0.012 -0.049,-0.009c-0.017,0.004 -0.031,0.014 -0.04,0.029c-0.124,0.197 -0.542,0.863 -0.663,1.055c-0.019,0.03 -0.011,0.068 0.018,0.088c0.189,0.124 0.836,0.553 1.029,0.68Zm1.085,-1.728c0.015,0.01 0.032,0.013 0.049,0.01c0.017,-0.004 0.031,-0.014 0.04,-0.029c0.124,-0.197 0.543,-0.863 0.664,-1.056c0.018,-0.029 0.01,-0.067 -0.019,-0.087c-0.189,-0.124 -0.836,-0.553 -1.029,-0.681c-0.014,-0.009 -0.032,-0.012 -0.048,-0.009c-0.017,0.004 -0.032,0.014 -0.041,0.029c-0.124,0.197 -0.542,0.863 -0.663,1.056c-0.018,0.029 -0.01,0.067 0.019,0.087c0.188,0.124 0.836,0.553 1.028,0.68Zm1.094,-1.722c0.015,0.01 0.032,0.013 0.049,0.009c0.017,-0.003 0.031,-0.013 0.041,-0.028c0.123,-0.197 0.542,-0.863 0.663,-1.056c0.018,-0.029 0.01,-0.068 -0.019,-0.087c-0.189,-0.125 -0.836,-0.553 -1.029,-0.681c-0.014,-0.009 -0.032,-0.013 -0.048,-0.009c-0.017,0.004 -0.032,0.014 -0.041,0.028c-0.124,0.197 -0.542,0.863 -0.663,1.056c-0.018,0.03 -0.01,0.068 0.019,0.087c0.188,0.125 0.836,0.554 1.028,0.681Zm1.086,-1.728c0.014,0.01 0.032,0.013 0.048,0.009c0.017,-0.003 0.032,-0.013 0.041,-0.028c0.124,-0.197 0.542,-0.863 0.663,-1.056c0.019,-0.029 0.01,-0.068 -0.019,-0.087c-0.188,-0.125 -0.836,-0.553 -1.028,-0.681c-0.015,-0.009 -0.032,-0.013 -0.049,-0.009c-0.017,0.004 -0.031,0.014 -0.04,0.028c-0.124,0.197 -0.542,0.863 -0.664,1.056c-0.018,0.03 -0.01,0.068 0.019,0.087c0.189,0.125 0.836,0.554 1.029,0.681Zm1.085,-1.728c0.015,0.01 0.032,0.013 0.049,0.009c0.017,-0.003 0.031,-0.013 0.04,-0.028c0.124,-0.197 0.542,-0.863 0.664,-1.056c0.018,-0.029 0.01,-0.068 -0.019,-0.087c-0.189,-0.125 -0.836,-0.553 -1.029,-0.681c-0.014,-0.009 -0.032,-0.013 -0.048,-0.009c-0.017,0.004 -0.032,0.014 -0.041,0.028c-0.124,0.197 -0.542,0.863 -0.663,1.056c-0.019,0.03 -0.01,0.068 0.019,0.087c0.188,0.125 0.836,0.554 1.028,0.681Zm1.086,-1.728c0.014,0.01 0.031,0.013 0.048,0.009c0.017,-0.003 0.032,-0.013 0.041,-0.028c0.124,-0.197 0.542,-0.863 0.663,-1.056c0.018,-0.029 0.01,-0.068 -0.019,-0.087c-0.188,-0.125 -0.836,-0.553 -1.028,-0.681c-0.015,-0.009 -0.032,-0.013 -0.049,-0.009c-0.017,0.004 -0.031,0.014 -0.041,0.029c-0.123,0.196 -0.542,0.863 -0.663,1.055c-0.018,0.03 -0.01,0.068 0.019,0.087c0.189,0.125 0.836,0.554 1.029,0.681Z" style="fill:#0090b4;"/></g></svg>