<?xml version="1.0" encoding="UTF-8" standalone="no"?><!DOCTYPE svg PUBLIC "-//W3C//DTD SVG 1.1//EN" "http://www.w3.org/Graphics/SVG/1.1/DTD/svg11.dtd"><svg width="100%" height="100%" viewBox="0 0 46 46" version="1.1" xmlns="http://www.w3.org/2000/svg" xmlns:xlink="http://www.w3.org/1999/xlink" xml:space="preserve" xmlns:serif="http://www.serif.com/" style="fill-rule:evenodd;clip-rule:evenodd;stroke-linejoin:round;stroke-miterlimit:2;"><rect id="Artboard2" x="0" y="0" width="45.011" height="45.011" style="fill:none;"/><clipPath id="_clip1"><rect x="0" y="0" width="45.011" height="45.011"/></clipPath><g clip-path="url(#_clip1)"><path d="M22.417,0.434c12.372,-0 22.417,10.044 22.417,22.417c-0,12.372 -10.045,22.417 -22.417,22.417c-12.372,-0 -22.417,-10.045 -22.417,-22.417c0,-12.373 10.045,-22.417 22.417,-22.417Zm8.843,32.172c0.286,0.096 0.601,0.022 0.815,-0.191c0.213,-0.213 0.287,-0.529 0.191,-0.815l-4.734,-14.06l-13.816,-13.816c-4.426,2.133 -8.127,5.719 -10.346,10.319l13.83,13.83l14.06,4.733Zm-1.361,-4.564c-1.334,0.372 -1.908,1.398 -2.154,2.212l-9.151,-3.081l0.141,-0.429c0.204,-0.624 0.76,-1.066 1.415,-1.123l1.343,-0.117l0.368,-1.52c0.215,-0.891 0.904,-1.592 1.792,-1.822l1.555,-0.404l0.164,-1.382c0.094,-0.8 0.659,-1.435 1.39,-1.652l3.137,9.318Zm-9.13,-4.256l-0.166,0.683c0,0 -0.231,0.021 -0.55,0.048c-0.036,0.003 -0.072,0.007 -0.108,0.012l-14.26,-14.259c0.226,-0.297 0.459,-0.587 0.698,-0.87l14.386,14.386Zm3.511,-3.61c-0.003,0.023 -0.006,0.047 -0.009,0.07c-0.044,0.374 -0.074,0.63 -0.074,0.63l-0.622,0.161l-14.4,-14.4c0.287,-0.237 0.579,-0.468 0.877,-0.69l14.228,14.229Z" style="fill:#15b097;"/></g></svg>