<?xml version="1.0" encoding="UTF-8" standalone="no"?><!DOCTYPE svg PUBLIC "-//W3C//DTD SVG 1.1//EN" "http://www.w3.org/Graphics/SVG/1.1/DTD/svg11.dtd"><svg width="100%" height="100%" viewBox="0 0 46 46" version="1.1" xmlns="http://www.w3.org/2000/svg" xmlns:xlink="http://www.w3.org/1999/xlink" xml:space="preserve" xmlns:serif="http://www.serif.com/" style="fill-rule:evenodd;clip-rule:evenodd;stroke-linejoin:round;stroke-miterlimit:2;"><rect id="Artboard2" x="0" y="0" width="45.011" height="45.011" style="fill:none;"/><clipPath id="_clip1"><rect x="0" y="0" width="45.011" height="45.011"/></clipPath><g clip-path="url(#_clip1)"><path d="M22.506,-0c12.421,-0 22.505,10.084 22.505,22.506c0,12.421 -10.084,22.505 -22.505,22.505c-12.422,0 -22.506,-10.084 -22.506,-22.505c0,-12.422 10.084,-22.506 22.506,-22.506Zm-2.443,14.948c-0,-0 11.59,-4.033 15.632,-5.439c0.316,-0.11 0.665,-0.06 0.938,0.133c0.273,0.194 0.435,0.507 0.436,0.842c0.01,4.047 0.037,15.423 0.047,19.388c0.001,0.326 -0.152,0.634 -0.413,0.83c-0.261,0.196 -0.599,0.257 -0.912,0.166l-15.728,-4.604l-2.459,-0l2.406,8.014c0.09,0.302 0.033,0.628 -0.155,0.88c-0.188,0.253 -0.484,0.402 -0.798,0.402c-1.407,-0 -3.572,-0 -4.714,-0c-0.451,-0 -0.846,-0.304 -0.962,-0.74l-2.273,-8.57c-1.324,-0.136 -2.357,-1.254 -2.357,-2.614l0,-1.102c-0.489,-0.105 -0.856,-0.539 -0.856,-1.059c0,-0.794 0,-1.867 0,-2.661c0,-0.52 0.367,-0.955 0.856,-1.059l0,-0.179c0,-1.452 1.177,-2.628 2.628,-2.628l8.684,-0Zm-3.802,11.316l-3.818,-0l2.124,8.009l4.098,-0l-2.404,-8.009Zm5.088,-10.402l0,9.438l14.479,4.238l-0.045,-18.697l-14.434,5.021Z" style="fill:#ff6a00;"/></g></svg>