<?xml version="1.0" encoding="UTF-8" standalone="no"?><!DOCTYPE svg PUBLIC "-//W3C//DTD SVG 1.1//EN" "http://www.w3.org/Graphics/SVG/1.1/DTD/svg11.dtd"><svg width="100%" height="100%" viewBox="0 0 46 46" version="1.1" xmlns="http://www.w3.org/2000/svg" xmlns:xlink="http://www.w3.org/1999/xlink" xml:space="preserve" xmlns:serif="http://www.serif.com/" style="fill-rule:evenodd;clip-rule:evenodd;stroke-linejoin:round;stroke-miterlimit:2;"><rect id="Artboard2" x="0" y="0" width="45.011" height="45.011" style="fill:none;"/><clipPath id="_clip1"><rect x="0" y="0" width="45.011" height="45.011"/></clipPath><g clip-path="url(#_clip1)"><path d="M22.328,-0c12.421,-0 22.506,10.084 22.506,22.506c-0,12.421 -10.085,22.505 -22.506,22.505c-12.421,0 -22.506,-10.084 -22.506,-22.505c0,-12.422 10.085,-22.506 22.506,-22.506Zm15.707,13.452c-0,-1.658 -1.344,-3.002 -3.002,-3.002l-25.41,0c-1.658,0 -3.002,1.344 -3.002,3.002l0,18.107c0,1.658 1.344,3.002 3.002,3.002l25.41,0c1.658,0 3.002,-1.344 3.002,-3.002l-0,-18.107Zm-1.036,2.53l-29.345,-0l-0,15.204c-0,1.449 1.174,2.623 2.623,2.623l24.098,0c1.449,0 2.624,-1.174 2.624,-2.623l-0,-15.204Zm-27.273,-1.36l0.141,0c0.67,0 1.214,-0.544 1.214,-1.214c0,-0.671 -0.544,-1.215 -1.214,-1.215l-0.141,0c-0.671,0 -1.215,0.544 -1.215,1.215c0,0.67 0.544,1.214 1.215,1.214Zm7.514,0l0.141,0c0.67,0 1.214,-0.544 1.214,-1.214c0,-0.671 -0.544,-1.215 -1.214,-1.215l-0.141,0c-0.67,0 -1.215,0.544 -1.215,1.215c0,0.67 0.545,1.214 1.215,1.214Zm-3.757,0l0.141,0c0.67,0 1.214,-0.544 1.214,-1.214c0,-0.671 -0.544,-1.215 -1.214,-1.215l-0.141,0c-0.671,0 -1.215,0.544 -1.215,1.215c0,0.67 0.544,1.214 1.215,1.214Z" style="fill:#a8ee54;"/></g></svg>