<?xml version="1.0" encoding="UTF-8" standalone="no"?><!DOCTYPE svg PUBLIC "-//W3C//DTD SVG 1.1//EN" "http://www.w3.org/Graphics/SVG/1.1/DTD/svg11.dtd"><svg width="100%" height="100%" viewBox="0 0 227 227" version="1.1" xmlns="http://www.w3.org/2000/svg" xmlns:xlink="http://www.w3.org/1999/xlink" xml:space="preserve" xmlns:serif="http://www.serif.com/" style="fill-rule:evenodd;clip-rule:evenodd;stroke-linejoin:round;stroke-miterlimit:2;"><rect id="Artboard4" x="0" y="0" width="226.479" height="226.478" style="fill:none;"/><clipPath id="_clip1"><rect x="0" y="0" width="226.479" height="226.478"/></clipPath><g clip-path="url(#_clip1)"><g><path d="M81.236,212.539c-7.348,3.332 -12.03,5.042 -12.063,5.054c-40.559,-17.234 -69.037,-57.461 -69.037,-104.286c-0,-15.683 3.195,-30.626 8.972,-44.22c0.011,0.032 1.716,4.699 5.04,12.034c-3.29,10.142 -5.067,20.954 -5.067,32.179c0,46.348 30.299,85.676 72.155,99.239Z" style="fill:#006989;"/><path d="M14.136,81.16c-3.331,-7.347 -5.042,-12.029 -5.054,-12.062c17.235,-40.559 57.46,-69.037 104.286,-69.037c15.683,-0 30.626,3.195 44.219,8.971c-0.031,0.011 -4.698,1.717 -12.033,5.041c-10.142,-3.29 -20.955,-5.067 -32.179,-5.067c-46.348,0 -85.676,30.299 -99.239,72.154Z" style="fill:#beee62;"/><path d="M145.514,14.06c7.348,-3.331 12.03,-5.042 12.063,-5.054c40.56,17.235 69.037,57.461 69.037,104.286c0,15.684 -3.195,30.627 -8.971,44.22c-0.012,-0.031 -1.717,-4.699 -5.041,-12.034c3.29,-10.141 5.067,-20.954 5.067,-32.178c-0,-46.349 -30.299,-85.676 -72.155,-99.24Z" style="fill:#ec6a06;"/><path d="M212.614,145.439c3.332,7.348 5.043,12.03 5.055,12.063c-17.235,40.559 -57.461,69.037 -104.286,69.037c-15.683,-0 -30.627,-3.195 -44.22,-8.971c0.031,-0.012 4.699,-1.717 12.034,-5.042c10.141,3.29 20.954,5.067 32.178,5.067c46.348,0 85.676,-30.298 99.239,-72.154Z" style="fill:#15b097;"/></g></g></svg>