<?xml version="1.0" encoding="UTF-8" standalone="no"?><!DOCTYPE svg PUBLIC "-//W3C//DTD SVG 1.1//EN" "http://www.w3.org/Graphics/SVG/1.1/DTD/svg11.dtd"><svg width="100%" height="100%" viewBox="0 0 251 89" version="1.1" xmlns="http://www.w3.org/2000/svg" xmlns:xlink="http://www.w3.org/1999/xlink" xml:space="preserve" xmlns:serif="http://www.serif.com/" style="fill-rule:evenodd;clip-rule:evenodd;stroke-linejoin:round;stroke-miterlimit:2;"><rect id="Artboard1" x="0" y="0" width="250.025" height="88.473" style="fill:none;"/><clipPath id="_clip1"><rect x="0" y="0" width="250.025" height="88.473"/></clipPath><g clip-path="url(#_clip1)"><g><path d="M56.719,19.163c0.013,0.037 8.322,22.776 23.349,27.256l0.02,-0.032c1.567,0.514 3.242,0.793 4.981,0.793c7.759,-0 14.235,-5.537 15.69,-12.871c-3.04,16.21 -27.672,25.21 -27.711,25.225c-11.026,-4.685 -18.768,-15.621 -18.768,-28.35c0,-4.263 0.869,-8.325 2.439,-12.021Z" style="fill:#006989;"/><path d="M97.083,2.837c-0.036,0.014 -22.776,8.322 -27.256,23.349l0.032,0.02c-0.514,1.567 -0.793,3.242 -0.793,4.981c0,7.759 5.537,14.235 12.871,15.69c-16.21,-3.04 -25.21,-27.672 -25.225,-27.711c4.685,-11.026 15.621,-18.768 28.35,-18.768c4.263,0 8.326,0.869 12.021,2.439Z" style="fill:#beee62;"/><path d="M113.409,43.201c-0.014,-0.036 -8.322,-22.776 -23.349,-27.256l-0.02,0.032c-1.567,-0.514 -3.242,-0.792 -4.981,-0.792c-7.759,-0 -14.235,5.536 -15.69,12.87c3.04,-16.21 27.672,-25.21 27.711,-25.225c11.026,4.686 18.768,15.621 18.768,28.35c-0,4.264 -0.869,8.326 -2.439,12.021Z" style="fill:#ec6a06;"/><path d="M73.045,59.527c0.036,-0.013 22.776,-8.322 27.256,-23.349l-0.032,-0.02c0.514,-1.567 0.792,-3.242 0.792,-4.981c0,-7.759 -5.536,-14.235 -12.87,-15.69c16.21,3.04 25.21,27.672 25.225,27.711c-4.685,11.026 -15.621,18.768 -28.35,18.768c-4.263,-0 -8.326,-0.869 -12.021,-2.439Z" style="fill:#15b097;"/></g><g><path d="M50.835,29.933c0,9.995 -2.751,17.696 -8.254,23.103c-5.503,5.407 -13.238,8.11 -23.205,8.11l-19.376,0l-0,-59.887l20.727,-0c9.613,-0 17.034,2.458 22.264,7.373c5.229,4.916 7.844,12.016 7.844,21.301Zm-16.795,0.573c0,-5.489 -1.085,-9.558 -3.256,-12.207c-2.171,-2.649 -5.469,-3.973 -9.893,-3.973l-4.711,-0l0,33.548l3.605,0c4.916,0 8.52,-1.426 10.814,-4.28c2.294,-2.854 3.441,-7.217 3.441,-13.088Z" style="fill:#fff;fill-rule:nonzero;"/><path d="M160.548,42.959c0,3.714 -0.942,7.011 -2.826,9.893c-1.885,2.881 -4.602,5.12 -8.152,6.717c-3.55,1.598 -7.715,2.397 -12.494,2.397c-3.987,-0 -7.332,-0.28 -10.036,-0.84c-2.703,-0.56 -5.516,-1.536 -8.438,-2.929l0,-14.419c3.086,1.584 6.295,2.82 9.626,3.707c3.332,0.888 6.391,1.332 9.176,1.332c2.403,-0 4.165,-0.417 5.284,-1.25c1.12,-0.833 1.68,-1.905 1.68,-3.215c-0,-0.82 -0.226,-1.536 -0.676,-2.151c-0.451,-0.614 -1.174,-1.236 -2.171,-1.864c-0.997,-0.628 -3.653,-1.911 -7.967,-3.85c-3.906,-1.775 -6.835,-3.496 -8.787,-5.162c-1.953,-1.665 -3.4,-3.577 -4.342,-5.734c-0.942,-2.158 -1.413,-4.711 -1.413,-7.66c-0,-5.517 2.007,-9.818 6.021,-12.904c4.015,-3.086 9.531,-4.629 16.549,-4.629c6.199,0 12.521,1.434 18.966,4.302l-4.956,12.493c-5.599,-2.567 -10.432,-3.85 -14.501,-3.85c-2.103,-0 -3.632,0.368 -4.588,1.106c-0.956,0.737 -1.434,1.652 -1.434,2.744c0,1.175 0.608,2.226 1.823,3.154c1.215,0.929 4.513,2.622 9.893,5.08c5.161,2.321 8.745,4.813 10.752,7.476c2.007,2.662 3.011,6.014 3.011,10.056Z" style="fill:#fff;fill-rule:nonzero;"/><path d="M197.726,61.146l-16.426,0l-0,-31.705c-0,-3.85 0.082,-7.373 0.246,-10.568c-1.011,1.229 -2.267,2.512 -3.769,3.85l-6.8,5.612l-8.397,-10.322l20.563,-16.754l14.583,-0l0,59.887Z" style="fill:#fff;fill-rule:nonzero;"/><path d="M212.661,61.146l20.563,-46.411l-25.929,0l-0,-13.394l43.216,-0l-0,9.544l-21.096,50.261l-16.754,0Z" style="fill:#fff;fill-rule:nonzero;"/></g><g><path d="M50.838,77.259c0,2.825 -0.784,4.985 -2.353,6.48c-1.568,1.494 -3.828,2.241 -6.777,2.241l-4.788,0l-0,-17.114l5.291,0c2.724,0 4.842,0.734 6.356,2.201c1.514,1.467 2.271,3.531 2.271,6.192Zm-2.949,0.094c-0,-4.097 -1.916,-6.146 -5.748,-6.146l-2.423,0l-0,12.421l1.99,-0c4.12,-0 6.181,-2.092 6.181,-6.275Z" style="fill:#fff;fill-rule:nonzero;"/><rect x="55.713" y="68.866" width="2.798" height="17.114" style="fill:#fff;fill-rule:nonzero;"/><path d="M71.228,76.697l6.298,0l0,8.593c-1.03,0.335 -2.019,0.574 -2.967,0.714c-0.948,0.14 -1.973,0.211 -3.073,0.211c-2.591,-0 -4.589,-0.767 -5.994,-2.301c-1.404,-1.533 -2.107,-3.697 -2.107,-6.491c0,-2.755 0.792,-4.91 2.377,-6.467c1.584,-1.557 3.765,-2.336 6.543,-2.336c1.787,0 3.481,0.344 5.081,1.03l-0.983,2.33c-1.39,-0.64 -2.779,-0.96 -4.168,-0.96c-1.826,-0 -3.27,0.574 -4.331,1.721c-1.062,1.147 -1.592,2.716 -1.592,4.706c-0,2.091 0.478,3.681 1.434,4.77c0.956,1.089 2.331,1.633 4.126,1.633c0.906,0 1.873,-0.113 2.903,-0.339l0,-4.414l-3.547,0l0,-2.4Z" style="fill:#fff;fill-rule:nonzero;"/><rect x="82.834" y="68.866" width="2.798" height="17.114" style="fill:#fff;fill-rule:nonzero;"/><path d="M97.261,85.98l-2.798,0l-0,-14.714l-5.034,-0l0,-2.4l12.865,0l0,2.4l-5.033,-0l-0,14.714Z" style="fill:#fff;fill-rule:nonzero;"/><path d="M116.733,85.98l-1.709,-4.752l-6.544,-0l-1.674,4.752l-2.95,0l6.403,-17.184l3.044,-0l6.403,17.184l-2.973,0Zm-2.447,-7.164l-1.604,-4.659c-0.117,-0.312 -0.279,-0.804 -0.485,-1.475c-0.207,-0.671 -0.35,-1.162 -0.428,-1.475c-0.211,0.96 -0.519,2.01 -0.925,3.149l-1.545,4.46l4.987,0Z" style="fill:#fff;fill-rule:nonzero;"/><path d="M123.164,85.98l0,-17.114l2.798,0l-0,14.715l7.246,-0l0,2.399l-10.044,0Z" style="fill:#fff;fill-rule:nonzero;"/></g></g></svg>